<mxfile host="app.diagrams.net" modified="2024-03-21T00:00:00.000Z" agent="5.0 (Macintosh; Intel Mac OS X 10_15_7) AppleWebKit/537.36 (KHTML, like Gecko) Chrome/100.0.4896.100 Electron/16.0.1250.0 Safari/537.36" etag="gW-TzCj9oEdxb1Mg9Ji7" version="14.4.11">
  <diagram name="Page-1" id="0MmLx9REJ5e89OjIL0IL">
    <mxGraphModel dx="1190" dy="722" grid="1" gridSize="10" guides="1" tooltips="1" connect="1" arrows="1" fold="1" page="1" pageScale="1" pageWidth="827" pageHeight="1169" math="0" shadow="0">
      <root>
        <mxCell id="0" />
        <mxCell id="1" parent="0" />
        <mxCell id="J8Or2-oBGu6WvIolG1a1-2" value="" style="rounded=0;whiteSpace=wrap;html=1;" vertex="1" parent="1">
          <mxGeometry x="280" y="60" width="100" height="50" as="geometry" />
        </mxCell>
        <mxCell id="J8Or2-oBGu6WvIolG1a1-3" value="" style="rounded=0;whiteSpace=wrap;html=1;" vertex="1" parent="1">
          <mxGeometry x="180" y="160" width="100" height="50" as="geometry" />
        </mxCell>
        <mxCell id="J8Or2-oBGu6WvIolG1a1-4" value="" style="rounded=0;whiteSpace=wrap;html=1;" vertex="1" parent="1">
          <mxGeometry x="380" y="160" width="100" height="50" as="geometry" />
        </mxCell>
        <mxCell id="J8Or2-oBGu6WvIolG1a1-5" value="" style="rounded=0;whiteSpace=wrap;html=1;" vertex="1" parent="1">
          <mxGeometry x="280" y="260" width="100" height="50" as="geometry" />
        </mxCell>
        <mxCell id="J8Or2-oBGu6WvIolG1a1-6" value="" style="rounded=0;whiteSpace=wrap;html=1;" vertex="1" parent="1">
          <mxGeometry x="180" y="360" width="100" height="50" as="geometry" />
        </mxCell>
        <mxCell id="J8Or2-oBGu6WvIolG1a1-7" value="" style="rounded=0;whiteSpace=wrap;html=1;" vertex="1" parent="1">
          <mxGeometry x="380" y="360" width="100" height="50" as="geometry" />
        </mxCell>
        <mxCell id="J8Or2-oBGu6WvIolG1a1-8" value="Start" style="rounded=1;whiteSpace=wrap;html=1;" vertex="1" parent="1">
          <mxGeometry x="250" y="30" width="60" height="30" as="geometry" />
        </mxCell>
        <mxCell id="J8Or2-oBGu6WvIolG1a1-9" value="Process 1" style="rounded=1;whiteSpace=wrap;html=1;" vertex="1" parent="1">
          <mxGeometry x="180" y="130" width="100" height="30" as="geometry" />
        </mxCell>
        <mxCell id="J8Or2-oBGu6WvIolG1a1-10" value="Process 2" style="rounded=1;whiteSpace=wrap;html=1;" vertex="1" parent="1">
          <mxGeometry x="380" y="130" width="100" height="30" as="geometry" />
        </mxCell>
        <mxCell id="J8Or2-oBGu6WvIolG1a1-11" value="Process 3" style="rounded=1;whiteSpace=wrap;html=1;" vertex="1" parent="1">
          <mxGeometry x="280" y="230" width="100" height="30" as="geometry" />
        </mxCell>
        <mxCell id="J8Or2-oBGu6WvIolG1a1-12" value="Process 4" style="rounded=1;whiteSpace=wrap;html=1;" vertex="1" parent="1">
          <mxGeometry x="180" y="330" width="100" height="30" as="geometry" />
        </mxCell>
        <mxCell id="J8Or2-oBGu6WvIolG1a1-13" value="Process 5" style="rounded=1;whiteSpace=wrap;html=1;" vertex="1" parent="1">
          <mxGeometry x="380" y="330" width="100" height="30" as="geometry" />
        </mxCell>
        <mxCell id="J8Or2-oBGu6WvIolG1a1-14" value="End" style="rounded=1;whiteSpace=wrap;html=1;" vertex="1" parent="1">
          <mxGeometry x="260" y="430" width="60" height="30" as="geometry" />
        </mxCell>
        <mxCell id="J8Or2-oBGu6WvIolG1a1-15" value="" style="endArrow=classic;html=1;exitX=1;exitY=0.5;exitDx=0;exitDy=0;strokeColor=#000000;strokeWidth=2;" edge="1" parent="1" source="J8Or2-oBGu6WvIolG1a1-8" target="J8Or2-oBGu6WvIolG1a1-9">
          <mxGeometry relative="1" as="geometry" />
        </mxCell>
        <mxCell id="J8Or2-oBGu6WvIolG1a1-16" value="" style="endArrow=classic;html=1;exitX=1;exitY=0.5;exitDx=0;exitDy=0;strokeColor=#000000;strokeWidth=
